<svg width="16" height="16" viewBox="0 0 16 16" fill="none" xmlns="http://www.w3.org/2000/svg">
<path d="M7.30002 15.5C7.8523 15.5 8.30002 15.0523 8.30002 14.5C8.30002 13.9477 7.8523 13.5 7.30002 13.5C6.74773 13.5 6.30002 13.9477 6.30002 14.5C6.30002 15.0523 6.74773 15.5 7.30002 15.5Z" fill="white"/>
<path d="M11.9667 15.5C12.519 15.5 12.9667 15.0523 12.9667 14.5C12.9667 13.9477 12.519 13.5 11.9667 13.5C11.4144 13.5 10.9667 13.9477 10.9667 14.5C10.9667 15.0523 11.4144 15.5 11.9667 15.5Z" fill="white"/>
<path d="M1.66667 2L4.66667 4L6.33334 11.3333H13L14.6667 5.66667H8.33334" stroke="white" stroke-width="1.3" stroke-linecap="round" stroke-linejoin="round"/>
<path d="M8.33334 8.66669H10.7576H13.6667" stroke="white" stroke-width="1.3" stroke-linecap="round" stroke-linejoin="round"/>
</svg>
